# xmcd
#
# Track frame offsets: 
#        150
#        19350
#        45240
#        66375
#        82072
#        101015
#        124275
#        143492
#        170587
#        194287
#        223525
#        238807
#
# Disc length: 3434 seconds
#
# Revision: 0
# Processed by: cddbd v1.4PL0 Copyright (c) Steve Scherf et al.
# Submitted via: ExactAudioCopy v0.90b4
#
DISCID=ae0d680c
DTITLE=Johnny Charles - Roadmaster
DYEAR=1997
DGENRE=Blues
TTITLE0=Roadmaster
TTITLE1=Memphis Blues
TTITLE2=Upside Down
TTITLE3=Live Wire
TTITLE4=Lose My Mind
TTITLE5=Runnin Hot
TTITLE6=In The Groove
TTITLE7=Blue Heat
TTITLE8=Park Avenue Swing
TTITLE9=When The Sun Goes Down
TTITLE10=Streamliner
TTITLE11=Low Gear
EXTD=
EXTT0=
EXTT1=
EXTT2=
EXTT3=
EXTT4=
EXTT5=
EXTT6=
EXTT7=
EXTT8=
EXTT9=
EXTT10=
EXTT11=
PLAYORDER=
